<?xml version="1.0" encoding="utf-8"?>
<!-- Generator: Adobe Illustrator 22.1.0, SVG Export Plug-In . SVG Version: 6.00 Build 0)  -->
<svg version="1.1" id="Capa_1" xmlns="http://www.w3.org/2000/svg" xmlns:xlink="http://www.w3.org/1999/xlink" x="0px" y="0px"
	 viewBox="0 0 205 22" style="enable-background:new 0 0 205 22;" xml:space="preserve">
<style type="text/css">
	.st0{fill:#FFFFFF;}
	.st1{fill:#A63232;}
</style>
<g>
	<path class="st0" d="M19.4,2.2c1.3,0,3.1,0.2,5.3,0.7c-0.1,1.4-0.3,2.7-0.6,3.8l-1.2,0.2c-0.2-1.4-0.4-2.4-0.8-2.9
		c-0.6-0.4-1.7-0.6-3.1-0.6c-1.4,0-2.6,0.6-3.4,1.7c-0.8,1.2-1.2,2.7-1.2,4.6s0.5,3.5,1.4,4.8c0.9,1.3,2.2,2,3.7,2
		c0.9,0,1.6-0.2,2.2-0.6v-2.9c0-0.4-0.2-0.7-0.5-0.8l-1.7-0.4l0.2-1c1.4,0.1,2.6,0.2,3.6,0.2c1,0,1.8-0.1,2.5-0.2l0.2,0.9
		c-0.4,0.1-0.8,0.3-1,0.4c-0.2,0.1-0.3,0.4-0.3,0.7v4.2c-1.5,0.5-3.3,0.8-5.4,0.8c-2.4,0-4.3-0.7-5.9-2c-1.5-1.3-2.3-3.1-2.3-5.3
		c0-2.5,0.8-4.5,2.3-6.1C14.9,3,16.9,2.2,19.4,2.2z"/>
	<path class="st0" d="M42.9,10.1v5.2c0,0.4,0.1,0.7,0.4,0.8c0.2,0.1,0.6,0.2,1.2,0.2l0.2,0.8c-1.4,0.2-2.5,0.5-3.3,0.8
		c-0.8-0.5-1.2-1-1.2-1.6c-1.1,1.1-2.1,1.6-2.9,1.6c-1.1,0-1.9-0.3-2.5-0.8c-0.6-0.5-0.9-1.4-0.9-2.7V10c0-0.5-0.2-0.8-0.6-0.8
		l-0.8,0.2l-0.2-0.9c0.6-0.2,1.3-0.5,2.2-0.7c0.9-0.2,1.6-0.3,2.1-0.3L37.1,8c-0.2,0.6-0.4,1.4-0.4,2.1v3.8c0,0.8,0.1,1.3,0.4,1.7
		c0.2,0.3,0.6,0.5,1.2,0.5c0.5,0,1.2-0.3,1.9-0.8V10c0-0.5-0.2-0.8-0.6-0.8l-0.8,0.2l-0.2-0.9c0.6-0.2,1.3-0.5,2.2-0.7
		c0.9-0.2,1.6-0.3,2.1-0.3L43.3,8C43.1,8.6,42.9,9.3,42.9,10.1z"/>
	<path class="st0" d="M55.6,10.1v5.6c0,0.2,0,0.3,0.1,0.4c0,0.1,0.1,0.2,0.3,0.2c0.3,0.2,0.7,0.3,1.2,0.5L57,17.7
		c-1.3-0.1-2.2-0.2-2.8-0.2s-1.5,0.1-2.8,0.2l-0.2-0.8c0.6-0.1,1-0.3,1.2-0.5c0.2-0.1,0.3-0.4,0.3-0.7V10c0-0.5-0.2-0.8-0.6-0.8
		l-0.8,0.2l-0.2-0.9c0.6-0.2,1.3-0.5,2.2-0.7c0.9-0.2,1.6-0.3,2.1-0.3L55.9,8C55.7,8.6,55.6,9.3,55.6,10.1z M52.5,5.1
		C52.2,4.8,52,4.4,52,3.9s0.2-0.9,0.5-1.2c0.3-0.3,0.8-0.4,1.3-0.4c0.5,0,1,0.1,1.3,0.4c0.3,0.3,0.5,0.7,0.5,1.2s-0.2,0.9-0.5,1.1
		c-0.3,0.3-0.8,0.4-1.3,0.4C53.3,5.5,52.8,5.4,52.5,5.1z"/>
	<path class="st0" d="M67.6,14.7c0,0.6,0.1,1,0.3,1.2c0.2,0.2,0.5,0.3,0.9,0.3c0.5,0,1-0.2,1.8-0.7l0.5,0.8
		c-1.3,1.1-2.5,1.7-3.3,1.7s-1.6-0.2-2.1-0.6s-0.8-1.2-0.8-2.2V9h-1.2l-0.2-0.9l1.3-0.4V6.6l2.8-1.3v2.5l2.7-0.2l-0.3,1.5L67.6,9
		V14.7z"/>
	<path class="st0" d="M85.5,10.8v4.6c0,0.3,0.1,0.5,0.2,0.6c0.1,0.1,0.3,0.2,0.6,0.2l0.6,0l0.2,0.8c-0.8,0.1-1.9,0.4-3.1,0.8
		c-0.6-0.4-1-0.9-1.2-1.5c-1,1-1.8,1.5-2.4,1.5c-0.9,0-1.6-0.2-2.1-0.7c-0.5-0.5-0.8-1.2-0.8-2c0-0.9,0.3-1.5,1-1.9
		c0.6-0.4,1.6-0.7,2.8-0.8l1.5-0.2v-1.1c0-0.8-0.1-1.4-0.3-1.8c-0.2-0.4-0.5-0.6-1-0.6c-0.5,0-1,0.1-1.4,0.3c-0.1,0.3-0.1,1-0.1,2.1
		l-1.4,0.4c-0.4-1.4-0.7-2.3-0.7-2.8c1.8-0.8,3.2-1.2,4-1.2c1.2,0,2.2,0.3,2.7,0.8C85.3,8.8,85.5,9.7,85.5,10.8z M80.5,15.8
		c0.2,0.2,0.5,0.4,0.9,0.4c0.4,0,0.9-0.2,1.4-0.7v-2.3l-1.2,0.3c-0.9,0.2-1.3,0.7-1.3,1.5C80.3,15.3,80.4,15.6,80.5,15.8z"/>
	<path class="st0" d="M100.8,7.5c0.5,0,1.1,0.2,1.8,0.6c-0.1,0.4-0.2,1-0.4,1.8c-0.2,0.8-0.4,1.3-0.5,1.7l-1,0.1
		c0-1.5-0.2-2.2-0.6-2.2c-0.6,0-1.2,0.5-2,1.6v4.8c0,0.2,0,0.3,0.1,0.4c0.1,0.1,0.2,0.2,0.3,0.2c0.3,0.1,0.7,0.3,1.3,0.3l0.3,0
		l-0.2,0.9c-1.8-0.1-3-0.2-3.5-0.2c-0.5,0-1.4,0.1-2.6,0.2l-0.2-0.8c0.6-0.1,1-0.3,1.2-0.4s0.4-0.4,0.4-0.7V10
		c0-0.5-0.2-0.8-0.6-0.8l-1.1,0.1l-0.1-0.9c0.5-0.2,1.2-0.5,1.9-0.7c0.8-0.2,1.4-0.3,1.9-0.4L97.9,8c0,0.6,0.1,1.1,0.2,1.6l0.6-0.9
		C99.3,7.9,100,7.5,100.8,7.5z"/>
</g>
<g>
	<path class="st1" d="M121.1,9.5V5c0-0.2,0-0.4-0.1-0.5c0-0.1-0.1-0.2-0.3-0.2c-0.3-0.1-0.7-0.2-1.2-0.3l-0.3,0l0.2-1
		c1.1,0.1,2.2,0.2,3.1,0.2c1,0,1.9-0.1,3-0.2l0.2,0.9c-0.6,0.1-1,0.3-1.3,0.4c-0.3,0.1-0.4,0.4-0.4,0.7v11.4c0,0.3,0.1,0.5,0.3,0.6
		c0.3,0.2,0.7,0.3,1.1,0.4l0.2,0l-0.2,0.9c-1-0.1-2-0.2-3-0.2c-1,0-2,0.1-3.2,0.2l-0.2-1c1.1-0.1,1.7-0.3,1.8-0.6c0-0.1,0-0.2,0-0.5
		v-5.2h-7.3v5.2c0,0.2,0,0.4,0.1,0.5c0,0.1,0.1,0.2,0.3,0.2c0.3,0.1,0.7,0.2,1.2,0.3l0.3,0l-0.2,1c-1.2-0.1-2.2-0.2-3.1-0.2
		c-0.9,0-1.9,0.1-3,0.2l-0.2-0.9c0.6-0.1,1-0.3,1.3-0.4c0.3-0.1,0.4-0.4,0.4-0.7V5c0-0.3-0.1-0.5-0.3-0.6c-0.3-0.2-0.7-0.3-1.2-0.4
		l-0.2,0l0.2-0.9c1,0.1,2,0.2,3,0.2s2-0.1,3.1-0.2l0.2,1c-0.7,0.1-1.2,0.2-1.5,0.3c-0.3,0.1-0.4,0.3-0.4,0.7v4.6H121.1z"/>
	<path class="st1" d="M138.4,18.5c-1.6,0-2.8-0.4-3.7-1.3c-0.9-0.9-1.3-2.1-1.3-3.6c0-1.5,0.5-2.8,1.4-3.8c0.9-1,2.2-1.5,3.8-1.5
		s2.8,0.4,3.7,1.3c0.9,0.9,1.4,2.1,1.4,3.6c0,1.5-0.5,2.8-1.4,3.8C141.2,18,139.9,18.5,138.4,18.5z M136.3,13.1
		c0,1.4,0.2,2.4,0.7,3.1c0.4,0.7,1,1.1,1.8,1.1c1.3,0,1.9-1.2,1.9-3.7c0-1.4-0.2-2.4-0.7-3.1c-0.4-0.7-1.1-1.1-1.9-1.1
		C136.9,9.4,136.3,10.6,136.3,13.1z"/>
	<path class="st1" d="M160.8,10.7v5.2c0,0.4,0.1,0.7,0.4,0.8c0.2,0.1,0.6,0.2,1.2,0.2l0.2,0.8c-1.4,0.2-2.5,0.5-3.3,0.8
		c-0.8-0.5-1.2-1-1.2-1.6c-1.1,1.1-2.1,1.6-2.9,1.6c-1.1,0-1.9-0.3-2.5-0.8c-0.6-0.5-0.9-1.4-0.9-2.7v-4.4c0-0.5-0.2-0.8-0.6-0.8
		l-0.8,0.2l-0.2-0.9c0.6-0.2,1.3-0.5,2.2-0.7c0.9-0.2,1.6-0.3,2.1-0.3l0.5,0.5c-0.2,0.6-0.4,1.4-0.4,2.1v3.8c0,0.8,0.1,1.3,0.4,1.7
		c0.2,0.3,0.6,0.5,1.2,0.5c0.5,0,1.2-0.3,1.9-0.8v-5.3c0-0.5-0.2-0.8-0.6-0.8l-0.8,0.2l-0.2-0.9c0.6-0.2,1.3-0.5,2.2-0.7
		c0.9-0.2,1.6-0.3,2.1-0.3l0.5,0.5C160.9,9.2,160.8,10,160.8,10.7z"/>
	<path class="st1" d="M172.7,17.4c0.4,0,0.7-0.1,0.9-0.3c0.2-0.2,0.4-0.5,0.4-0.9s0-0.6-0.1-0.8c-0.1-0.2-0.2-0.3-0.5-0.5
		c-0.3-0.2-0.7-0.5-1.3-0.8c-0.6-0.3-1-0.5-1.3-0.7s-0.6-0.5-0.9-1c-0.3-0.5-0.4-1-0.4-1.6c0-0.9,0.3-1.5,1-2
		c0.7-0.5,1.5-0.7,2.5-0.7c1,0,2.2,0.2,3.5,0.5c0,1-0.2,1.8-0.4,2.5l-0.9,0.2c-0.4-1.5-1.1-2.2-2.1-2.2c-0.7,0-1,0.4-1,1.2
		c0,0.3,0.1,0.6,0.4,0.8c0.3,0.2,0.7,0.5,1.2,0.7c0.5,0.3,0.9,0.4,1.1,0.6c0.2,0.1,0.5,0.3,0.9,0.6c0.7,0.6,1.1,1.3,1.1,2.3
		c0,1-0.4,1.8-1.1,2.3c-0.8,0.5-1.8,0.8-3,0.8c-1.3,0-2.3-0.2-3.3-0.6c0-0.3,0-0.7,0-1.4c0-0.7,0-1.1,0-1.4l1.1-0.3
		c0.1,0.8,0.4,1.4,0.8,1.8S172.1,17.4,172.7,17.4z"/>
	<path class="st1" d="M189.5,16.7c1,0,1.9-0.3,2.9-1l0.5,0.7c-1.5,1.4-2.8,2-4.1,2c-1.5,0-2.7-0.5-3.6-1.4c-0.9-0.9-1.3-2.1-1.3-3.6
		c0-1.5,0.5-2.8,1.4-3.8c0.9-1,2.1-1.6,3.5-1.6s2.5,0.4,3.3,1.3c0.7,0.9,1.1,2.1,1.1,3.6l-6.3,0.4C186.9,15.6,187.8,16.7,189.5,16.7
		z M190,11.8c0-1.7-0.5-2.6-1.5-2.6c-0.6,0-1,0.3-1.3,0.9c-0.3,0.6-0.4,1.3-0.4,2.1L190,11.8z"/>
</g>
</svg>
